<svg width="24" height="24" viewBox="0 0 24 24" fill="none" xmlns="http://www.w3.org/2000/svg">
<path d="M18.3287 8.81287C18.2458 8.86122 16.2729 9.88152 16.2729 12.1438C16.3659 14.7237 18.7626 15.6285 18.8037 15.6285C18.7626 15.6769 18.4419 16.861 17.4918 18.1024C16.7378 19.1716 15.901 20.2497 14.6302 20.2497C13.4214 20.2497 12.9874 19.5371 11.5927 19.5371C10.0948 19.5371 9.67097 20.2497 8.52416 20.2497C7.25337 20.2497 6.35451 19.1139 5.55942 18.0546C4.52648 16.6683 3.64851 14.4927 3.61752 12.4037C3.59663 11.2968 3.82438 10.2086 4.4025 9.28441C5.21848 7.99411 6.67524 7.11822 8.26609 7.08933C9.485 7.05103 10.5698 7.86916 11.3137 7.86916C12.0266 7.86916 13.3594 7.08933 14.8673 7.08933C15.5182 7.08996 17.254 7.27268 18.3287 8.81287ZM11.2106 6.86832C10.9937 5.85743 11.5927 4.84654 12.1506 4.20171C12.8635 3.42188 13.9894 2.89258 14.9603 2.89258C15.0223 3.90347 14.6295 4.89489 13.9274 5.61695C13.2974 6.39678 12.2126 6.98385 11.2106 6.86832Z" fill="#FDFDFD"/>
</svg>
