<svg width="21" height="21" viewBox="0 0 21 21" fill="none" xmlns="http://www.w3.org/2000/svg">
<path d="M14.875 1.75H6.125C3.71 1.75 1.75 3.71 1.75 6.125V14.875C1.75 17.29 3.71 19.25 6.125 19.25H14.875C17.29 19.25 19.25 17.29 19.25 14.875V6.125C19.25 3.71 17.29 1.75 14.875 1.75ZM10.5 14.875C8.085 14.875 6.125 12.915 6.125 10.5C6.125 8.085 8.085 6.125 10.5 6.125C12.915 6.125 14.875 8.085 14.875 10.5C14.875 12.915 12.915 14.875 10.5 14.875ZM15.1813 6.6675C14.7 6.6675 14.3063 6.27375 14.3063 5.7925C14.3063 5.31125 14.7 4.9175 15.1813 4.9175C15.6625 4.9175 16.0563 5.31125 16.0563 5.7925C16.0563 6.27375 15.6625 6.6675 15.1813 6.6675Z" fill="#183A31"/>
<path d="M10.5 13.125C11.9497 13.125 13.125 11.9497 13.125 10.5C13.125 9.05025 11.9497 7.875 10.5 7.875C9.05025 7.875 7.875 9.05025 7.875 10.5C7.875 11.9497 9.05025 13.125 10.5 13.125Z" fill="#183A31"/>
</svg>
