<svg width="16" height="16" viewBox="0 0 16 16" fill="none" xmlns="http://www.w3.org/2000/svg">
<path d="M11.333 1.3335H4.66634C2.82634 1.3335 1.33301 2.82683 1.33301 4.66683V11.3335C1.33301 13.1735 2.82634 14.6668 4.66634 14.6668H11.333C13.173 14.6668 14.6663 13.1735 14.6663 11.3335V4.66683C14.6663 2.82683 13.173 1.3335 11.333 1.3335ZM7.99967 11.3335C6.15967 11.3335 4.66634 9.84016 4.66634 8.00016C4.66634 6.16016 6.15967 4.66683 7.99967 4.66683C9.83967 4.66683 11.333 6.16016 11.333 8.00016C11.333 9.84016 9.83967 11.3335 7.99967 11.3335ZM11.5663 5.08016C11.1997 5.08016 10.8997 4.78016 10.8997 4.4135C10.8997 4.04683 11.1997 3.74683 11.5663 3.74683C11.933 3.74683 12.233 4.04683 12.233 4.4135C12.233 4.78016 11.933 5.08016 11.5663 5.08016Z" fill="white"/>
<path d="M8 10C9.10457 10 10 9.10457 10 8C10 6.89543 9.10457 6 8 6C6.89543 6 6 6.89543 6 8C6 9.10457 6.89543 10 8 10Z" fill="white"/>
</svg>
