<svg width="26" height="26" viewBox="0 0 26 26" fill="none" xmlns="http://www.w3.org/2000/svg">
<mask id="mask0_3252_1547" style="mask-type:alpha" maskUnits="userSpaceOnUse" x="6" y="3" width="18" height="20">
<path d="M23.0175 11.7C23.9352 12.205 23.9352 13.5088 23.0175 14.0137L8.34201 22.0893C7.44829 22.5811 6.34863 21.9429 6.34863 20.9325L6.34863 4.78126C6.34863 3.77082 7.44829 3.13263 8.34201 3.62442L23.0175 11.7Z" fill="#C4C4C4"/>
</mask>
<g mask="url(#mask0_3252_1547)">
<path d="M6.80768 21.9305L15.9618 12.7249L6.95844 3.6709C6.59925 3.90116 6.34863 4.2987 6.34863 4.78108V20.9323C6.34863 21.3438 6.53105 21.6936 6.80768 21.9305Z" fill="url(#paint0_linear_3252_1547)"/>
<path d="M23.0186 11.6998C23.9362 12.2047 23.9362 13.5085 23.0186 14.0135L19.3163 16.0508L15.9629 12.7248L19.1452 9.56836L23.0186 11.6998Z" fill="url(#paint1_linear_3252_1547)"/>
<path d="M19.3152 16.0511L15.9618 12.7251L6.80762 21.9307C7.21017 22.2754 7.81225 22.3809 8.34198 22.0894L19.3152 16.0511Z" fill="url(#paint2_linear_3252_1547)"/>
<path d="M6.95898 3.67107L15.9623 12.725L19.1447 9.56861L8.34253 3.62442C7.87548 3.36741 7.35218 3.41901 6.95898 3.67107Z" fill="url(#paint3_linear_3252_1547)"/>
</g>
<defs>
<linearGradient id="paint0_linear_3252_1547" x1="12.6239" y1="9.14935" x2="6.40002" y2="15.4244" gradientUnits="userSpaceOnUse">
<stop stop-color="#00C3FF"/>
<stop offset="1" stop-color="#1BE2FA"/>
</linearGradient>
<linearGradient id="paint1_linear_3252_1547" x1="15.9629" y1="12.7248" x2="24.2409" y2="12.7248" gradientUnits="userSpaceOnUse">
<stop stop-color="#FFCE00"/>
<stop offset="1" stop-color="#FFEA00"/>
</linearGradient>
<linearGradient id="paint2_linear_3252_1547" x1="6.61565" y1="23.0544" x2="17.6271" y2="14.2264" gradientUnits="userSpaceOnUse">
<stop stop-color="#DE2453"/>
<stop offset="1" stop-color="#FE3944"/>
</linearGradient>
<linearGradient id="paint3_linear_3252_1547" x1="7.15026" y1="2.66053" x2="17.6295" y2="11.2198" gradientUnits="userSpaceOnUse">
<stop stop-color="#11D574"/>
<stop offset="1" stop-color="#01F176"/>
</linearGradient>
</defs>
</svg>
